<mxfile host="app.diagrams.net" modified="2024-04-29T14:24:09.290Z" agent="Mozilla/5.0 (Windows NT 10.0; Win64; x64; rv:124.0) Gecko/20100101 Firefox/124.0" etag="Q54fYbJRGvz0dQiL-5N8" version="24.0.8" type="device">
  <diagram name="Page-1" id="Znto9FVgVtvIZ5vv3stq">
    <mxGraphModel dx="1005" dy="541" grid="1" gridSize="10" guides="1" tooltips="1" connect="1" arrows="1" fold="1" page="1" pageScale="1" pageWidth="850" pageHeight="1100" math="0" shadow="0">
      <root>
        <mxCell id="0" />
        <mxCell id="1" parent="0" />
        <mxCell id="R0-Zm9OjZg580dUjRL0N-1" value="Usuario" style="shape=umlActor;verticalLabelPosition=bottom;verticalAlign=top;html=1;" vertex="1" parent="1">
          <mxGeometry x="130" y="230" width="30" height="60" as="geometry" />
        </mxCell>
        <mxCell id="R0-Zm9OjZg580dUjRL0N-3" value="" style="whiteSpace=wrap;html=1;aspect=fixed;" vertex="1" parent="1">
          <mxGeometry x="210" y="60" width="420" height="420" as="geometry" />
        </mxCell>
        <mxCell id="R0-Zm9OjZg580dUjRL0N-4" value="Creador" style="shape=umlActor;verticalLabelPosition=bottom;verticalAlign=top;html=1;" vertex="1" parent="1">
          <mxGeometry x="150" y="90" width="30" height="60" as="geometry" />
        </mxCell>
        <mxCell id="R0-Zm9OjZg580dUjRL0N-5" value="&lt;div&gt;Administrador&lt;/div&gt;" style="shape=umlActor;verticalLabelPosition=bottom;verticalAlign=top;html=1;" vertex="1" parent="1">
          <mxGeometry x="150" y="370" width="30" height="60" as="geometry" />
        </mxCell>
        <mxCell id="R0-Zm9OjZg580dUjRL0N-7" value="Login" style="ellipse;whiteSpace=wrap;html=1;" vertex="1" parent="1">
          <mxGeometry x="240" y="245" width="100" height="30" as="geometry" />
        </mxCell>
        <mxCell id="R0-Zm9OjZg580dUjRL0N-11" value="" style="endArrow=none;html=1;rounded=0;" edge="1" parent="1" source="R0-Zm9OjZg580dUjRL0N-1" target="R0-Zm9OjZg580dUjRL0N-7">
          <mxGeometry width="50" height="50" relative="1" as="geometry">
            <mxPoint x="190" y="270" as="sourcePoint" />
            <mxPoint x="250" y="270" as="targetPoint" />
          </mxGeometry>
        </mxCell>
        <mxCell id="R0-Zm9OjZg580dUjRL0N-13" value="Crear publicacion" style="ellipse;whiteSpace=wrap;html=1;" vertex="1" parent="1">
          <mxGeometry x="260" y="70" width="100" height="30" as="geometry" />
        </mxCell>
        <mxCell id="R0-Zm9OjZg580dUjRL0N-14" value="" style="endArrow=none;html=1;rounded=0;" edge="1" parent="1" source="R0-Zm9OjZg580dUjRL0N-4" target="R0-Zm9OjZg580dUjRL0N-13">
          <mxGeometry width="50" height="50" relative="1" as="geometry">
            <mxPoint x="190" y="270" as="sourcePoint" />
            <mxPoint x="250" y="270" as="targetPoint" />
          </mxGeometry>
        </mxCell>
        <mxCell id="R0-Zm9OjZg580dUjRL0N-15" value="Crear perfil" style="ellipse;whiteSpace=wrap;html=1;" vertex="1" parent="1">
          <mxGeometry x="260" y="110" width="100" height="30" as="geometry" />
        </mxCell>
        <mxCell id="R0-Zm9OjZg580dUjRL0N-16" value="" style="endArrow=none;html=1;rounded=0;" edge="1" parent="1" source="R0-Zm9OjZg580dUjRL0N-4" target="R0-Zm9OjZg580dUjRL0N-15">
          <mxGeometry width="50" height="50" relative="1" as="geometry">
            <mxPoint x="190" y="273" as="sourcePoint" />
            <mxPoint x="344" y="306" as="targetPoint" />
          </mxGeometry>
        </mxCell>
        <mxCell id="R0-Zm9OjZg580dUjRL0N-17" value="Comentar publicacion" style="ellipse;whiteSpace=wrap;html=1;" vertex="1" parent="1">
          <mxGeometry x="240" y="290" width="100" height="30" as="geometry" />
        </mxCell>
        <mxCell id="R0-Zm9OjZg580dUjRL0N-20" value="" style="endArrow=none;html=1;rounded=0;" edge="1" parent="1" source="R0-Zm9OjZg580dUjRL0N-1" target="R0-Zm9OjZg580dUjRL0N-17">
          <mxGeometry width="50" height="50" relative="1" as="geometry">
            <mxPoint x="190" y="147" as="sourcePoint" />
            <mxPoint x="287" y="256" as="targetPoint" />
          </mxGeometry>
        </mxCell>
        <mxCell id="R0-Zm9OjZg580dUjRL0N-22" value="Borrar usuarios" style="ellipse;whiteSpace=wrap;html=1;" vertex="1" parent="1">
          <mxGeometry x="270" y="370" width="100" height="30" as="geometry" />
        </mxCell>
        <mxCell id="R0-Zm9OjZg580dUjRL0N-23" value="Borrar publicaciones" style="ellipse;whiteSpace=wrap;html=1;" vertex="1" parent="1">
          <mxGeometry x="270" y="420" width="100" height="30" as="geometry" />
        </mxCell>
        <mxCell id="R0-Zm9OjZg580dUjRL0N-24" value="" style="endArrow=none;html=1;rounded=0;" edge="1" parent="1" source="R0-Zm9OjZg580dUjRL0N-5" target="R0-Zm9OjZg580dUjRL0N-22">
          <mxGeometry width="50" height="50" relative="1" as="geometry">
            <mxPoint x="190" y="393" as="sourcePoint" />
            <mxPoint x="287" y="284" as="targetPoint" />
          </mxGeometry>
        </mxCell>
        <mxCell id="R0-Zm9OjZg580dUjRL0N-25" value="" style="endArrow=none;html=1;rounded=0;" edge="1" parent="1" source="R0-Zm9OjZg580dUjRL0N-5" target="R0-Zm9OjZg580dUjRL0N-23">
          <mxGeometry width="50" height="50" relative="1" as="geometry">
            <mxPoint x="190" y="409" as="sourcePoint" />
            <mxPoint x="282" y="400" as="targetPoint" />
          </mxGeometry>
        </mxCell>
        <mxCell id="R0-Zm9OjZg580dUjRL0N-27" value="Editar publicacion" style="ellipse;whiteSpace=wrap;html=1;" vertex="1" parent="1">
          <mxGeometry x="260" y="150" width="100" height="30" as="geometry" />
        </mxCell>
        <mxCell id="R0-Zm9OjZg580dUjRL0N-28" value="Modificar" style="ellipse;whiteSpace=wrap;html=1;" vertex="1" parent="1">
          <mxGeometry x="440" y="120" width="100" height="30" as="geometry" />
        </mxCell>
        <mxCell id="R0-Zm9OjZg580dUjRL0N-29" value="Eliminar" style="ellipse;whiteSpace=wrap;html=1;" vertex="1" parent="1">
          <mxGeometry x="440" y="160" width="100" height="30" as="geometry" />
        </mxCell>
        <mxCell id="R0-Zm9OjZg580dUjRL0N-30" value="" style="endArrow=none;dashed=1;html=1;rounded=0;" edge="1" parent="1" source="R0-Zm9OjZg580dUjRL0N-27" target="R0-Zm9OjZg580dUjRL0N-29">
          <mxGeometry width="50" height="50" relative="1" as="geometry">
            <mxPoint x="350" y="200" as="sourcePoint" />
            <mxPoint x="400" y="150" as="targetPoint" />
          </mxGeometry>
        </mxCell>
        <mxCell id="R0-Zm9OjZg580dUjRL0N-31" value="extends" style="edgeLabel;html=1;align=center;verticalAlign=middle;resizable=0;points=[];" vertex="1" connectable="0" parent="R0-Zm9OjZg580dUjRL0N-30">
          <mxGeometry x="-0.2875" relative="1" as="geometry">
            <mxPoint as="offset" />
          </mxGeometry>
        </mxCell>
        <mxCell id="R0-Zm9OjZg580dUjRL0N-33" value="" style="endArrow=none;dashed=1;html=1;rounded=0;" edge="1" parent="1" source="R0-Zm9OjZg580dUjRL0N-27" target="R0-Zm9OjZg580dUjRL0N-28">
          <mxGeometry width="50" height="50" relative="1" as="geometry">
            <mxPoint x="368" y="180" as="sourcePoint" />
            <mxPoint x="473" y="190" as="targetPoint" />
          </mxGeometry>
        </mxCell>
        <mxCell id="R0-Zm9OjZg580dUjRL0N-34" value="extends" style="edgeLabel;html=1;align=center;verticalAlign=middle;resizable=0;points=[];" vertex="1" connectable="0" parent="R0-Zm9OjZg580dUjRL0N-33">
          <mxGeometry x="-0.2875" relative="1" as="geometry">
            <mxPoint as="offset" />
          </mxGeometry>
        </mxCell>
        <mxCell id="R0-Zm9OjZg580dUjRL0N-35" value="" style="endArrow=none;html=1;rounded=0;" edge="1" parent="1" source="R0-Zm9OjZg580dUjRL0N-4" target="R0-Zm9OjZg580dUjRL0N-27">
          <mxGeometry width="50" height="50" relative="1" as="geometry">
            <mxPoint x="210" y="180" as="sourcePoint" />
            <mxPoint x="260" y="130" as="targetPoint" />
          </mxGeometry>
        </mxCell>
        <mxCell id="R0-Zm9OjZg580dUjRL0N-36" value="" style="endArrow=none;html=1;rounded=0;" edge="1" parent="1" source="R0-Zm9OjZg580dUjRL0N-5">
          <mxGeometry width="50" height="50" relative="1" as="geometry">
            <mxPoint x="140" y="350" as="sourcePoint" />
            <mxPoint x="150" y="320" as="targetPoint" />
          </mxGeometry>
        </mxCell>
        <mxCell id="R0-Zm9OjZg580dUjRL0N-37" value="" style="endArrow=none;html=1;rounded=0;" edge="1" parent="1" source="R0-Zm9OjZg580dUjRL0N-1">
          <mxGeometry width="50" height="50" relative="1" as="geometry">
            <mxPoint x="120" y="240" as="sourcePoint" />
            <mxPoint x="160" y="170" as="targetPoint" />
          </mxGeometry>
        </mxCell>
      </root>
    </mxGraphModel>
  </diagram>
</mxfile>
